<?xml version="1.0" standalone="no"?>
<!DOCTYPE svg PUBLIC "-//W3C//DTD SVG 20010904//EN"
 "http://www.w3.org/TR/2001/REC-SVG-20010904/DTD/svg10.dtd">
<svg version="1.0" xmlns="http://www.w3.org/2000/svg"
 width="256.000000pt" height="256.000000pt" viewBox="0 0 256.000000 256.000000"
 preserveAspectRatio="xMidYMid meet">

<g transform="translate(0.000000,256.000000) scale(0.100000,-0.100000)"
fill="#000000" stroke="none">
<path d="M109 2212 c-43 -22 -59 -38 -81 -81 l-28 -53 0 -478 0 -478 28 -53
c37 -70 105 -109 193 -109 l59 0 0 -148 c0 -151 5 -172 40 -172 8 0 87 72 175
160 l160 160 112 0 113 0 0 -79 c0 -67 4 -87 28 -132 22 -43 38 -59 81 -81
l53 -28 432 0 431 0 160 -160 c88 -88 167 -160 175 -160 35 0 40 21 40 172 l0
148 59 0 c88 0 156 39 193 109 l28 53 0 478 0 478 -28 53 c-22 43 -38 59 -81
81 l-53 28 -359 0 -359 0 0 79 c0 67 -4 87 -28 132 -22 43 -38 59 -81 81 l-53
28 -678 0 -678 0 -53 -28z m1421 -70 c70 -35 70 -33 70 -542 0 -413 -2 -458
-18 -490 -34 -70 -34 -70 -526 -70 l-439 0 -129 -127 -128 -127 0 115 c0 76
-4 119 -12 127 -7 7 -42 12 -87 12 -92 0 -138 20 -163 70 -16 32 -18 77 -18
490 0 509 0 507 70 542 32 17 86 18 690 18 604 0 658 -1 690 -18z m890 -318
c61 -37 60 -26 60 -544 0 -419 -2 -475 -16 -500 -28 -47 -63 -60 -156 -60 -52
0 -89 -5 -96 -12 -8 -8 -12 -52 -12 -132 l0 -121 -133 133 -132 132 -444 0
c-392 0 -446 2 -471 16 -45 27 -60 63 -60 148 l0 76 279 0 279 0 53 28 c43 22
59 38 81 81 l28 53 0 359 0 359 356 0 c312 0 359 -2 384 -16z"/>
</g>
</svg>
