<?xml version="1.0" standalone="no"?>
<!DOCTYPE svg PUBLIC "-//W3C//DTD SVG 20010904//EN"
 "http://www.w3.org/TR/2001/REC-SVG-20010904/DTD/svg10.dtd">
<svg version="1.0" xmlns="http://www.w3.org/2000/svg"
 width="67.000000pt" height="67.000000pt" viewBox="0 0 67.000000 67.000000"
 preserveAspectRatio="xMidYMid meet">

<g transform="translate(0.000000,67.000000) scale(0.100000,-0.100000)"
fill="#000000" stroke="none">
<path d="M20 509 l0 -90 28 3 c26 3 27 6 30 61 l3 57 54 0 c54 0 55 0 55 30
l0 30 -85 0 -85 0 0 -91z"/>
<path d="M480 570 l0 -30 60 0 60 0 0 -60 c0 -57 1 -60 25 -60 25 0 25 1 25
90 l0 90 -85 0 -85 0 0 -30z"/>
<path d="M310 415 l0 -55 -55 0 c-52 0 -55 -1 -55 -25 0 -24 3 -25 55 -25 l55
0 0 -55 c0 -52 1 -55 25 -55 24 0 25 3 25 55 l0 55 55 0 c52 0 55 1 55 24 0
23 -4 25 -52 28 l-53 3 -3 53 c-3 48 -5 52 -28 52 -23 0 -24 -3 -24 -55z"/>
<path d="M20 165 l0 -85 85 0 c84 0 85 0 85 25 0 24 -3 25 -55 25 l-55 0 0 60
0 60 -30 0 -30 0 0 -85z"/>
<path d="M600 190 l0 -60 -60 0 c-57 0 -60 -1 -60 -25 0 -25 1 -25 85 -25 l85
0 0 85 c0 84 0 85 -25 85 -24 0 -25 -3 -25 -60z"/>
</g>
</svg>
