<?xml version="1.0" standalone="no"?>
<!DOCTYPE svg PUBLIC "-//W3C//DTD SVG 20010904//EN"
 "http://www.w3.org/TR/2001/REC-SVG-20010904/DTD/svg10.dtd">
<svg version="1.0" xmlns="http://www.w3.org/2000/svg"
 width="512.000000pt" height="512.000000pt" viewBox="0 0 512.000000 512.000000"
 preserveAspectRatio="xMidYMid meet">

<g transform="translate(0.000000,512.000000) scale(0.100000,-0.100000)"
fill="#000000" stroke="none">
<path d="M140 5100 c-63 -21 -102 -61 -125 -128 -13 -40 -15 -288 -15 -2201 0
-1474 3 -2168 11 -2194 13 -48 63 -105 112 -127 21 -10 530 -116 1132 -236
1057 -211 1095 -218 1142 -206 59 16 110 56 137 108 18 33 22 61 24 176 l4
138 554 0 c605 0 595 -1 658 58 16 15 37 45 47 67 17 38 19 79 19 725 0 641
-2 688 -19 725 -72 158 -295 167 -381 15 l-25 -45 -3 -563 -3 -562 -424 0
-425 0 -2 1738 c-3 1735 -3 1737 -24 1776 -40 77 -61 86 -459 207 -203 61
-372 113 -374 115 -2 2 381 4 852 4 l856 0 3 -557 c3 -555 3 -558 25 -600 84
-155 300 -156 378 0 l25 51 0 676 c0 480 -3 687 -11 711 -19 56 -59 100 -113
125 l-51 24 -1735 0 c-1676 -1 -1737 -1 -1790 -20z"/>
<path d="M4225 3621 c-101 -25 -168 -107 -168 -206 0 -83 22 -117 179 -276
l147 -148 -619 -3 -619 -3 -45 -25 c-127 -72 -148 -246 -40 -344 21 -19 56
-39 77 -45 25 -7 249 -11 648 -11 l610 0 -152 -152 c-83 -84 -159 -169 -168
-188 -36 -70 -17 -176 41 -234 67 -67 155 -82 239 -42 70 33 714 679 744 746
28 61 26 115 -4 176 -35 70 -694 726 -745 742 -56 17 -93 21 -125 13z"/>
</g>
</svg>
